<?xml version="1.0" standalone="no"?>
<!DOCTYPE svg PUBLIC "-//W3C//DTD SVG 20010904//EN"
 "http://www.w3.org/TR/2001/REC-SVG-20010904/DTD/svg10.dtd">
<svg version="1.0" xmlns="http://www.w3.org/2000/svg"
     width="100" height="100" viewBox="28 10 230 250" preserveAspectRatio="xMidYMid meet" >

<g transform="translate(0.000000,300.000000) scale(0.100000,-0.100000)"
fill="#ececec" stroke="none">
<path d="M683 2033 c15 -4 17 -20 17 -144 0 -86 -4 -139 -10 -139 -5 0 -10 -3
-10 -7 0 -5 41 -8 91 -7 109 1 142 19 147 77 3 39 -26 77 -60 77 -24 0 -23 16
2 23 25 6 44 48 37 80 -9 35 -47 47 -145 46 -48 -1 -79 -3 -69 -6z m145 -15
c17 -17 15 -84 -4 -102 -8 -9 -26 -16 -40 -16 -23 0 -24 3 -24 58 0 32 3 62 7
65 11 11 48 8 61 -5z m14 -145 c23 -21 24 -85 2 -108 -10 -10 -29 -15 -48 -13
l-31 3 -3 68 -3 67 32 0 c18 0 41 -7 51 -17z"/>
<path d="M973 2029 c15 -9 17 -27 17 -144 0 -113 -2 -135 -15 -135 -8 0 -15
-5 -15 -11 0 -6 7 -8 16 -5 9 3 60 6 115 6 l99 0 -1 48 0 47 -19 -42 c-19 -42
-20 -43 -70 -43 l-50 0 0 65 c0 63 1 65 25 65 18 0 28 -7 35 -25 5 -14 11 -25
13 -25 1 0 3 27 2 60 0 63 -8 78 -19 35 -5 -18 -13 -25 -31 -25 -24 0 -25 2
-25 66 l0 65 48 -3 c43 -3 49 -6 64 -38 l18 -35 0 43 0 42 -112 0 c-82 -1
-108 -3 -95 -11z"/>
<path d="M1225 1994 c3 -48 15 -74 15 -33 0 35 27 69 56 69 l24 0 0 -140 c0
-115 -3 -140 -14 -140 -8 0 -17 -3 -19 -7 -3 -5 26 -8 64 -8 68 0 88 8 49 18
-19 5 -20 14 -20 141 0 136 0 136 23 136 28 0 50 -23 65 -65 10 -28 10 -27 11
23 l1 52 -129 0 -129 0 3 -46z"/>
<path d="M1511 1988 c1 -50 1 -51 11 -23 15 42 37 65 65 65 23 0 23 0 23 -136
0 -127 -1 -136 -20 -141 -39 -10 -19 -18 49 -18 38 0 67 3 64 8 -2 4 -11 7
-19 7 -11 0 -14 25 -14 140 l0 140 24 0 c29 0 44 -17 52 -59 9 -42 15 -33 19
23 l3 46 -129 0 -129 0 1 -52z"/>
<path d="M1813 2029 c15 -9 17 -27 17 -139 0 -112 -2 -130 -17 -139 -10 -5
-16 -11 -13 -13 3 -2 56 -2 118 0 l112 3 -1 47 -1 47 -15 -35 c-19 -44 -28
-50 -80 -50 l-43 0 0 65 c0 63 1 65 25 65 18 0 26 -7 31 -25 3 -14 11 -25 16
-25 6 0 7 7 4 16 -3 9 -6 37 -6 62 0 44 -1 45 -13 23 -6 -13 -22 -28 -34 -32
-22 -8 -23 -7 -23 61 l0 70 44 0 c47 0 57 -8 74 -55 10 -29 10 -28 11 18 l1
47 -112 0 c-82 -1 -108 -3 -95 -11z"/>
<path d="M2083 2029 c15 -9 17 -27 17 -144 0 -113 -2 -135 -15 -135 -8 0 -15
-3 -15 -7 0 -5 27 -8 60 -8 33 0 60 3 60 8 0 4 -7 7 -15 7 -12 0 -15 14 -15
65 0 62 1 65 24 65 30 0 43 -15 51 -65 11 -59 30 -85 64 -85 16 0 34 6 40 14
10 12 9 13 -7 9 -17 -4 -22 3 -32 47 -9 39 -20 56 -41 69 l-28 17 29 11 c59
22 64 103 10 130 -31 16 -214 18 -187 2z m153 -24 c32 -49 1 -115 -55 -115
-19 0 -21 6 -21 70 l0 70 30 0 c20 0 35 -8 46 -25z"/>
<path d="M660 1620 c0 -20 7 -20 840 -20 833 0 840 0 840 20 0 20 -7 20 -840
20 -833 0 -840 0 -840 -20z"/>
<path d="M873 1458 c-26 -13 -42 -54 -33 -88 3 -14 31 -43 64 -69 67 -50 84
-78 67 -110 -12 -21 -63 -29 -87 -13 -16 11 -34 48 -34 71 0 12 -4 21 -10 21
-5 0 -10 -26 -10 -57 0 -42 3 -54 11 -46 8 8 21 7 47 -4 42 -17 89 -11 126 18
20 16 26 29 26 59 0 40 -9 50 -104 123 -45 35 -51 83 -12 93 40 10 66 -5 86
-49 l19 -42 0 55 c0 34 -3 50 -8 41 -6 -10 -13 -11 -29 -2 -26 14 -90 13 -119
-1z"/>
<path d="M1093 1459 c15 -9 17 -27 17 -144 0 -117 -2 -135 -17 -144 -14 -8 0
-10 52 -10 52 0 66 2 53 10 -16 9 -18 27 -18 144 0 117 2 135 18 144 13 8 -1
10 -53 10 -52 0 -66 -2 -52 -10z"/>
<path d="M1275 1445 c-47 -46 -30 -89 61 -156 51 -38 55 -43 52 -77 -3 -37 -3
-37 -48 -37 -46 0 -49 2 -78 75 -9 21 -11 16 -11 -35 -1 -43 2 -56 10 -48 8 8
20 7 46 -3 68 -29 153 10 153 70 0 41 -26 75 -84 112 -25 16 -50 39 -55 52
-27 58 47 88 88 36 12 -15 21 -35 21 -45 0 -11 5 -19 10 -19 6 0 10 23 10 51
0 41 -3 49 -13 41 -8 -7 -18 -7 -27 -2 -8 6 -37 10 -63 10 -38 0 -53 -5 -72
-25z"/>
<path d="M1480 1461 c0 -5 4 -11 9 -13 5 -1 31 -66 59 -143 62 -174 72 -179
113 -56 16 46 30 86 33 88 2 2 17 -35 33 -84 42 -125 53 -122 98 24 44 145 55
173 66 173 5 0 9 5 9 10 0 6 -19 10 -42 10 -38 -1 -41 -2 -25 -14 23 -18 21
-46 -7 -136 -27 -85 -23 -87 -67 48 -23 73 -23 74 -4 88 17 13 12 14 -43 14
-60 0 -72 -6 -53 -25 26 -30 30 -75 9 -135 -11 -33 -21 -60 -23 -60 -9 0 -66
183 -62 200 5 18 0 20 -49 20 -30 0 -54 -4 -54 -9z"/>
<path d="M1980 1338 c-28 -73 -58 -143 -66 -155 -14 -23 -14 -23 27 -23 41 0
41 0 20 18 -20 16 -21 19 -8 57 13 38 16 40 60 43 44 3 48 1 58 -25 22 -57 22
-81 3 -86 -11 -3 12 -5 50 -6 55 -1 66 2 58 12 -6 7 -35 76 -65 152 -34 87
-60 141 -70 143 -11 2 -29 -32 -67 -130z m59 -1 l20 -47 -44 0 -44 0 21 50
c11 28 22 49 24 48 1 -2 12 -25 23 -51z"/>
</g>
</svg>
