<?xml version="1.0" standalone="no"?>
<!DOCTYPE svg PUBLIC "-//W3C//DTD SVG 20010904//EN"
 "http://www.w3.org/TR/2001/REC-SVG-20010904/DTD/svg10.dtd">
<svg version="1.0" xmlns="http://www.w3.org/2000/svg"
     width="100" height="100" viewBox="28 10 230 250" preserveAspectRatio="xMidYMid meet">

<g transform="translate(0.000000,300.000000) scale(0.100000,-0.100000)"
fill="#000000" stroke="none">
<path d="M535 2006 c-29 -29 -29 -36 -16 -236 5 -74 13 -217 16 -317 7 -181 8
-183 30 -183 21 0 23 6 29 81 4 44 6 179 5 299 -2 165 1 223 10 234 11 13 10
27 -6 77 -10 34 -24 64 -30 66 -7 3 -24 -7 -38 -21z"/>
<path d="M753 2009 c15 -9 17 -27 17 -144 0 -117 -2 -135 -17 -144 -27 -16
156 -14 187 2 13 7 31 25 40 40 13 24 13 30 0 55 -9 15 -30 34 -47 43 l-32 16
25 11 c35 17 49 58 29 89 -22 33 -54 43 -143 43 -57 -1 -73 -3 -59 -11z m135
-11 c13 -13 16 -75 6 -102 -3 -9 -12 -16 -20 -16 -8 0 -14 -4 -14 -10 0 -5 8
-10 19 -10 27 0 45 -27 45 -65 0 -43 -29 -77 -63 -73 l-26 3 -3 129 c-1 72 0
136 2 143 7 16 38 17 54 1z"/>
<path d="M1033 2009 c15 -9 17 -27 17 -144 0 -117 -2 -135 -17 -144 -13 -8 15
-10 100 -11 l117 0 0 53 -1 52 -14 -39 c-17 -49 -30 -57 -80 -54 l-40 3 -3 68
c-3 66 -3 67 23 67 20 0 29 -8 40 -32 14 -33 14 -32 15 37 l0 70 -20 -32 c-12
-20 -28 -33 -40 -33 -18 0 -20 7 -20 65 0 62 1 65 26 71 42 11 78 -7 89 -44
13 -44 20 -40 20 11 l0 42 -115 2 c-83 2 -110 0 -97 -8z"/>
<path d="M1291 1968 l0 -53 19 41 c17 39 35 54 66 54 12 0 14 -24 12 -142 -3
-142 -3 -142 -28 -149 -15 -4 7 -7 55 -7 57 -1 74 2 58 8 -22 9 -23 14 -23
150 0 120 2 140 15 140 23 0 65 -46 65 -70 0 -11 5 -20 10 -20 6 0 10 23 10
50 l0 50 -130 0 -130 0 1 -52z"/>
<path d="M1570 1969 c0 -31 4 -48 10 -44 6 3 10 14 10 24 0 26 22 49 53 57
l27 6 0 -141 c0 -138 -1 -142 -22 -151 -17 -6 -3 -9 52 -9 55 0 69 3 53 9 -22
9 -23 13 -23 151 l0 141 28 -6 c30 -8 52 -31 52 -57 0 -10 5 -21 10 -24 6 -4
10 13 10 44 l0 51 -130 0 -130 0 0 -51z"/>
<path d="M1873 2009 c15 -9 17 -27 17 -144 0 -117 -2 -135 -17 -144 -13 -8 15
-10 100 -11 l117 0 -1 53 c-1 47 -2 49 -10 21 -13 -46 -40 -66 -86 -62 l-38 3
-3 68 c-3 59 -1 67 15 67 24 0 36 -10 50 -40 10 -22 12 -17 12 40 l0 65 -20
-27 c-11 -16 -29 -28 -40 -28 -18 0 -20 6 -17 68 l3 67 32 3 c44 4 71 -12 82
-51 9 -31 9 -31 10 16 l1 47 -112 0 c-82 -1 -108 -3 -95 -11z"/>
<path d="M2143 2010 c15 -10 17 -28 17 -145 0 -117 -2 -135 -17 -144 -14 -8
-2 -10 47 -10 49 0 61 2 48 10 -14 8 -18 23 -18 70 l0 60 33 -3 c30 -3 33 -6
45 -58 12 -52 40 -90 66 -90 7 0 21 6 32 14 19 14 19 14 0 13 -15 -2 -22 8
-31 44 -15 58 -22 68 -48 78 -20 8 -20 9 10 24 34 18 43 34 43 78 0 46 -36 63
-149 67 -72 2 -92 0 -78 -8z m149 -17 c20 -18 24 -73 8 -104 -8 -13 -21 -19
-45 -19 l-35 0 0 63 c0 35 3 67 7 70 12 12 46 7 65 -10z"/>
<path d="M720 1660 c0 -20 7 -20 845 -20 838 0 845 0 845 20 0 20 -7 20 -845
20 -838 0 -845 0 -845 -20z"/>
<path d="M785 1588 c-61 -48 -85 -169 -45 -221 23 -30 74 -47 138 -47 23 0 42
-4 42 -10 0 -5 -18 -28 -39 -49 -46 -46 -85 -57 -173 -47 -53 5 -59 4 -56 -12
4 -25 76 -57 129 -57 65 0 117 37 157 112 31 59 32 59 78 62 26 1 55 6 65 12
11 5 27 5 43 -1 14 -5 89 -9 167 -8 120 0 144 3 159 18 16 16 19 16 55 -3 58
-29 198 -22 240 13 10 8 24 5 53 -10 44 -23 127 -29 160 -11 14 8 29 8 47 1
40 -15 147 -12 171 4 18 13 26 13 60 1 21 -7 61 -15 89 -16 l50 -3 18 49 c18
48 18 54 1 140 -9 50 -18 92 -20 94 -8 9 -54 -44 -54 -61 0 -11 10 -48 22 -83
13 -35 20 -67 16 -70 -7 -8 -106 11 -127 24 -12 8 -11 17 3 59 19 61 19 62 3
62 -22 0 -44 -31 -58 -80 -16 -57 -32 -70 -88 -70 -66 0 -75 8 -56 53 14 34
14 37 -1 37 -9 0 -35 -20 -58 -45 -36 -38 -48 -45 -80 -45 -36 0 -106 23 -106
35 0 3 9 23 20 44 10 21 16 41 13 45 -16 16 -34 2 -63 -49 -25 -44 -38 -56
-68 -65 -78 -21 -202 -6 -202 26 0 8 9 37 19 64 16 42 17 52 6 56 -23 9 -32
-2 -61 -76 -25 -64 -30 -70 -61 -76 -52 -10 -60 5 -38 76 10 33 15 63 11 67
-15 15 -41 -16 -59 -73 -11 -32 -25 -62 -31 -66 -13 -9 -98 -10 -120 -2 -13 5
-13 10 1 40 12 25 14 37 6 45 -11 11 -18 6 -66 -55 -19 -23 -33 -30 -74 -33
l-50 -5 -7 48 c-8 62 -47 147 -77 168 -32 22 -71 20 -104 -6z m87 -75 c32 -34
58 -85 58 -113 0 -23 -27 -26 -100 -9 -82 19 -102 62 -54 118 32 38 62 39 96
4z"/>
<path d="M1780 1240 l-23 -32 25 -24 24 -24 27 28 27 28 -29 28 -29 27 -22
-31z"/>
<path d="M1650 1225 l-24 -26 28 -27 27 -27 25 29 25 28 -22 24 c-28 30 -30
30 -59 -1z"/>
</g>
</svg>
